# xmcd
#
# Track frame offsets:
#	150
#	14829
#	32380
#	48894
#	72974
#	92445
#	107426
#	126142
#	141205
#	163479
#	179955
#	198803
#	218407
#	236041
#	254298
#	275116
#	295970
#
# Disc length: 4271 seconds
#
# Revision: 0
# Processed by: cddbd v1.5.2PL0 Copyright (c) Steve Scherf et al.
# Submitted via: EZCDAudioConverter 1.1.0.1
#
DISCID=fe10ad11
DTITLE=陳慧嫻 - 音樂大全101 [CD5]
DYEAR=2011
DGENRE=Pop
TTITLE0=不住怨婦街
TTITLE1=甚麼都想要
TTITLE2=今天再不可
TTITLE3=心就要飛了
TTITLE4=月夜的隨想
TTITLE5=地球大追蹤
TTITLE6=你留低的信
TTITLE7=夜半輕私語
TTITLE8=幸福的條件
TTITLE9=昨日的傳說
TTITLE10=為何仍是你
TTITLE11=玻璃窗的愛
TTITLE12=從來是一對
TTITLE13=逝去的諾言
TTITLE14=最後的纏綿
TTITLE15=愛亦要捨棄
TTITLE16=緣了，就是完
EXTD=
EXTT0=
EXTT1=
EXTT2=
EXTT3=
EXTT4=
EXTT5=
EXTT6=
EXTT7=
EXTT8=
EXTT9=
EXTT10=
EXTT11=
EXTT12=
EXTT13=
EXTT14=
EXTT15=
EXTT16=
PLAYORDER=
